<svg id="Capa_1" enable-background="new 0 0 512 512" height="30" viewBox="0 0 512 512" width="30" xmlns="http://www.w3.org/2000/svg"><g><path d="m225.74 512h68.79v-158.27l-34.395-36.01-34.395 36.01z" fill="#b36f58"/><path d="m149.59 135.03-.01.03c.01-.03 76.16 218.67 76.16 218.67h68.79l47.5-97.93-47.5-120.77z" fill="#f3f5f9"/><path d="m442.48 213.14c0-43.14-34.97-78.11-78.11-78.11h-69.84v218.7h147.95z" fill="#e1e6f0"/><g><g><g><path d="m225.74 291.24v62.49h-156.22v-62.49l80.06-35.24z" fill="#e1e6f0"/></g><g><path d="m225.74 213.14v78.1h-156.22v-78.1c0-43.14 34.97-78.11 78.11-78.11.65 0 1.3.01 1.95.03 20.79.5 39.58 9.14 53.28 22.85 14.14 14.13 22.88 33.66 22.88 55.23z" fill="#4d5e80"/></g></g></g><g><path d="m279.53 70v159.619h15l11.96-88.294-11.96-71.325-8.27-10.04z" fill="#b36f58"/><path d="m309.53 70-7.5-10.04-7.5 10.04v159.619h15z" fill="#96564b"/></g><g><path d="m279.53 0v70h15l23.41-35-23.41-35z" fill="#93e98f"/><path d="m294.53 0h95v70h-95z" fill="#5ec97f"/></g></g></svg>