<svg id="Capa_1" enable-background="new 0 0 512 512" height="50" viewBox="0 0 512 512" width="50" xmlns="http://www.w3.org/2000/svg"><g><path d="m120 61h130c11.046 0 20-8.954 20-20v-20c0-11.046-8.954-20-20-20h-130c-11.046 0-20 8.954-20 20v20c0 11.046 8.954 20 20 20z"/><path d="m364.5 216c-81.462 0-147.5 66.038-147.5 147.5s66.038 147.5 147.5 147.5 147.5-66.038 147.5-147.5-66.038-147.5-147.5-147.5zm90 162.5h-16.51c-1.949 9.562-5.731 18.46-10.948 26.33l11.704 11.704c5.858 5.858 5.858 15.355 0 21.213s-15.355 5.858-21.213 0l-11.704-11.704c-7.869 5.218-16.768 9-26.33 10.948v16.51c0 8.284-6.716 15-15 15-8.284 0-15-6.716-15-15v-16.51c-9.562-1.949-18.46-5.731-26.33-10.948l-11.704 11.704c-5.858 5.858-15.355 5.858-21.213 0s-5.858-15.355 0-21.213l11.704-11.704c-5.217-7.869-9-16.768-10.948-26.33h-16.508c-8.284 0-15-6.716-15-15 0-8.284 6.716-15 15-15h16.509c1.949-9.562 5.731-18.46 10.948-26.33l-11.704-11.704c-5.858-5.858-5.858-15.355 0-21.213s15.355-5.858 21.213 0l11.704 11.704c7.869-5.218 16.768-9 26.33-10.948v-16.509c0-8.284 6.716-15 15-15 8.284 0 15 6.716 15 15v16.51c9.562 1.949 18.46 5.731 26.33 10.948l11.704-11.704c5.858-5.858 15.355-5.858 21.213 0s5.858 15.355 0 21.213l-11.704 11.704c5.218 7.869 9 16.768 10.948 26.33h16.51c8.284 0 15 6.716 15 15-.001 8.283-6.717 14.999-15.001 14.999z"/><path d="m364.5 318.5c-24.813 0-45 20.187-45 45s20.187 45 45 45 45-20.187 45-45-20.187-45-45-45zm0 60c-8.284 0-15-6.716-15-15s6.716-15 15-15 15 6.716 15 15-6.716 15-15 15z"/><path d="m200.347 431h-15.347c-8.284 0-15-6.716-15-15s6.716-15 15-15h5.999c-2.611-12.094-3.999-24.637-3.999-37.5 0-11.099 1.034-21.96 2.993-32.5h-4.993c-8.284 0-15-6.716-15-15s6.716-15 15-15h13.372c10.23-27.101 26.908-51.06 48.157-70h-61.529c-8.284 0-15-6.716-15-15s6.716-15 15-15h108.126c21.853-9.636 45.997-15 71.374-15 1.841 0 3.673.037 5.5.093v-110.093c0-24.813-20.187-45-45-45h-25v10c0 22.346-14.736 41.312-35 47.698v12.302c0 27.57-22.43 50-50 50h-60c-27.57 0-50-22.43-50-50v-12.302c-20.264-6.386-35-25.352-35-47.698v-10h-25c-24.813 0-45 20.187-45 45v390c0 24.813 20.187 45 45 45h220.866c-29.036-19.48-52.023-47.299-65.519-80zm-52.921-25.606-42.426 42.425c-5.858 5.858-15.355 5.858-21.213 0l-21.213-21.213c-6.028-6.028-5.853-15.911.525-21.714 5.974-5.435 15.276-4.91 20.987.801l10.308 10.307 31.82-31.819c5.858-5.858 15.355-5.858 21.213 0 5.857 5.857 5.857 15.355-.001 21.213zm0-100-42.426 42.425c-5.858 5.858-15.355 5.858-21.213 0l-21.213-21.213c-6.028-6.028-5.853-15.911.525-21.714 5.974-5.435 15.276-4.91 20.987.801l10.308 10.307 31.82-31.819c5.858-5.858 15.355-5.858 21.213 0 5.857 5.857 5.857 15.355-.001 21.213zm0-100-42.426 42.425c-5.858 5.858-15.355 5.858-21.213 0l-21.213-21.213c-6.028-6.028-5.853-15.911.525-21.714 5.974-5.435 15.276-4.91 20.987.801l10.308 10.307 31.82-31.819c5.858-5.858 15.355-5.858 21.213 0 5.857 5.857 5.857 15.355-.001 21.213z"/><path d="m155 121h60c11.046 0 20-8.954 20-20v-10h-100v10c0 11.046 8.954 20 20 20z"/></g></svg>